<?xml version="1.0" encoding="UTF-8" standalone="no"?>
<!-- Generator: Adobe Illustrator 26.0.3, SVG Export Plug-In . SVG Version: 6.00 Build 0)  -->

<svg
   version="1.1"
   id="Layer_1"
   x="0px"
   y="0px"
   viewBox="0 0 95.790003 95.759997"
   xml:space="preserve"
   sodipodi:docname="logo.svg"
   width="95.790001"
   height="95.760002"
   inkscape:version="1.4.3 (0d15f75, 2025-12-25)"
   xmlns:inkscape="http://www.inkscape.org/namespaces/inkscape"
   xmlns:sodipodi="http://sodipodi.sourceforge.net/DTD/sodipodi-0.dtd"
   xmlns="http://www.w3.org/2000/svg"
   xmlns:svg="http://www.w3.org/2000/svg"><defs
   id="defs46" /><sodipodi:namedview
   id="namedview46"
   pagecolor="#ffffff"
   bordercolor="#999999"
   borderopacity="1"
   inkscape:showpageshadow="2"
   inkscape:pageopacity="0"
   inkscape:pagecheckerboard="0"
   inkscape:deskcolor="#d1d1d1"
   inkscape:zoom="1.2297935"
   inkscape:cx="152.8712"
   inkscape:cy="110.58767"
   inkscape:window-width="1366"
   inkscape:window-height="697"
   inkscape:window-x="-8"
   inkscape:window-y="-8"
   inkscape:window-maximized="1"
   inkscape:current-layer="Layer_1" />
<style
   type="text/css"
   id="style1">
	.st0{fill:#FFFFFF;}
	.st1{fill:url(#SVGID_1_);}
	.st2{fill:url(#SVGID_00000024717817325264510610000011023657659126119864_);}
	.st3{fill:#886B25;}
	.st4{fill:url(#SVGID_00000154420026813267526560000005940026619401536936_);}
	.st5{fill:#007D8A;}
	.st6{fill:#007041;}
</style>


<g
   id="g46"
   transform="translate(-24.17,-24.17)">
	<g
   id="g27">
		<path
   class="st0"
   d="M 95.79,77.8 86.54,55.15 c -0.91,-2.1 -1.59,-3.6 -2.98,-3.6 -1.41,0.01 -2.07,1.59 -2.91,3.59 L 75.02,68.21 69.46,55.15 c -0.84,-2.01 -1.51,-3.59 -2.91,-3.6 -1.38,0.01 -2.06,1.5 -2.99,3.63 l -9.24,22.64 c -0.62,1.59 -0.51,3.19 0.31,4.38 0.82,1.2 2.27,1.89 3.97,1.89 h 4.07 l 0.02,5.16 c 0,1.85 1.51,3.36 3.36,3.36 h 1.17 c 1.85,0 3.36,-1.51 3.36,-3.36 v -2.53 c 0,-0.09 0,-0.18 -0.01,-0.27 v -2.36 h 4.09 c 0.14,0 0.27,-0.01 0.4,-0.02 0.13,0.01 0.25,0.02 0.39,0.02 h 4.09 v 2.36 c -0.01,0.09 -0.01,0.18 -0.01,0.27 v 2.53 c 0,1.85 1.51,3.36 3.36,3.36 h 1.17 c 1.85,0 3.36,-1.51 3.36,-3.36 l 0.02,-5.16 h 4.07 c 1.71,0 3.15,-0.69 3.97,-1.89 0.82,-1.19 0.94,-2.79 0.31,-4.4 z m -24.64,3.79 h -3.08 l 0.01,7.67 c 0,0.47 -0.38,0.85 -0.85,0.85 h -1.17 c -0.47,0 -0.85,-0.38 -0.85,-0.85 L 65.19,86.2 v -4.6 h -6.58 c -0.88,0 -1.55,-0.28 -1.9,-0.79 -0.35,-0.51 -0.37,-1.24 -0.05,-2.04 l 9.22,-22.6 c 0.12,-0.28 0.4,-0.91 0.66,-1.43 0.17,0.36 0.38,0.83 0.62,1.41 l 6.51,15.3 -2.49,6.4 c -0.52,1.31 -0.53,2.63 -0.03,3.74 z m 5.45,-0.85 c -0.28,0.45 -0.83,0.73 -1.53,0.81 -0.71,-0.08 -1.25,-0.36 -1.54,-0.81 -0.32,-0.51 -0.32,-1.22 -0.02,-2.01 l 1.53,-3.92 1.57,3.92 c 0.31,0.8 0.31,1.51 -0.01,2.01 z m 16.81,0.05 c -0.35,0.51 -1.03,0.79 -1.9,0.79 h -6.58 l -0.02,7.67 c 0,0.47 -0.38,0.85 -0.85,0.85 H 82.9 c -0.47,0 -0.85,-0.38 -0.85,-0.85 l 0.01,-7.67 h -3.07 c 0.5,-1.11 0.49,-2.42 -0.04,-3.76 l -2.57,-6.4 6.59,-15.3 c 0.24,-0.58 0.45,-1.04 0.62,-1.4 0.26,0.52 0.53,1.14 0.64,1.41 l 9.23,22.61 c 0.32,0.81 0.3,1.54 -0.05,2.05 z"
   id="path27" />
	</g>
	<g
   id="g45">
		<linearGradient
   id="SVGID_1_"
   gradientUnits="userSpaceOnUse"
   x1="49.210899"
   y1="98.501999"
   x2="117.207"
   y2="98.501999">
			<stop
   offset="0"
   style="stop-color:#00A9CE"
   id="stop27" />
			<stop
   offset="0.411"
   style="stop-color:#00A7CB"
   id="stop28" />
			<stop
   offset="0.6581"
   style="stop-color:#009FC3"
   id="stop29" />
			<stop
   offset="0.8612"
   style="stop-color:#0091B5"
   id="stop30" />
			<stop
   offset="1"
   style="stop-color:#0083A6"
   id="stop31" />
		</linearGradient>
		<path
   class="st1"
   d="m 100.75,95.06 c -6.41,6.89 -15.55,11.19 -25.7,11.19 -1.07,0 -2.13,-0.05 -3.18,-0.15 -3.12,0.83 -6.39,1.27 -9.77,1.27 -4.52,0 -8.86,-0.79 -12.88,-2.25 6.93,9.01 17.82,14.81 30.07,14.81 20.95,0 37.92,-16.97 37.92,-37.91 0,-1.69 -0.11,-3.36 -0.33,-4.99 -3.28,7.64 -8.98,13.96 -16.13,18.03 z"
   id="path31"
   style="fill:url(#SVGID_1_)" />
		
			<linearGradient
   id="SVGID_00000018196902737975277630000003945124359215411625_"
   gradientUnits="userSpaceOnUse"
   x1="59.4039"
   y1="50.610298"
   x2="119.9526"
   y2="50.610298">
			<stop
   offset="0"
   style="stop-color:#FFA300"
   id="stop32" />
			<stop
   offset="0.3498"
   style="stop-color:#FCA200"
   id="stop33" />
			<stop
   offset="0.5601"
   style="stop-color:#F49D00"
   id="stop34" />
			<stop
   offset="0.7336"
   style="stop-color:#E69600"
   id="stop35" />
			<stop
   offset="0.8861"
   style="stop-color:#D28B00"
   id="stop36" />
			<stop
   offset="1"
   style="stop-color:#BD8000"
   id="stop37" />
		</linearGradient>
		<path
   style="fill:url(#SVGID_00000018196902737975277630000003945124359215411625_)"
   d="m 80.96,36.57 c 11.28,1.91 20.72,9.2 25.61,19.13 5.5,5.69 9.23,13.1 10.32,21.35 1.98,-4.59 3.07,-9.65 3.07,-14.97 0,-20.94 -16.98,-37.91 -37.92,-37.91 -8.48,0 -16.31,2.78 -22.62,7.48 0.89,-0.06 1.79,-0.1 2.69,-0.1 6.85,0.01 13.29,1.83 18.85,5.02 z"
   id="path37" />
		<path
   class="st3"
   d="m 110.15,71.17 c 0,9.23 -3.57,17.63 -9.4,23.9 7.16,-4.07 12.86,-10.39 16.13,-18.01 -1.08,-8.24 -4.82,-15.65 -10.32,-21.35 2.3,4.66 3.59,9.91 3.59,15.46 z"
   id="path38" />
		
			<linearGradient
   id="SVGID_00000013890777353514864250000017316443315622300553_"
   gradientUnits="userSpaceOnUse"
   x1="24.1693"
   y1="68.395699"
   x2="59.4039"
   y2="68.395699">
			<stop
   offset="0"
   style="stop-color:#00B140"
   id="stop38" />
			<stop
   offset="0.3902"
   style="stop-color:#00AE40"
   id="stop39" />
			<stop
   offset="0.6248"
   style="stop-color:#01A63E"
   id="stop40" />
			<stop
   offset="0.8176"
   style="stop-color:#02983B"
   id="stop41" />
			<stop
   offset="0.9878"
   style="stop-color:#038437"
   id="stop42" />
			<stop
   offset="1"
   style="stop-color:#038237"
   id="stop43" />
		</linearGradient>
		<path
   style="fill:url(#SVGID_00000013890777353514864250000017316443315622300553_)"
   d="m 41.37,81.09 c -0.93,-3.15 -1.43,-6.48 -1.43,-9.93 0,-6.87 1.98,-13.28 5.39,-18.69 2.21,-8.45 7.26,-15.75 14.07,-20.82 -19.69,1.38 -35.23,17.78 -35.23,37.82 0,16.42 10.44,30.4 25.04,35.67 -4.92,-6.4 -7.85,-14.4 -7.85,-23.1 0,-0.32 0,-0.63 0.01,-0.95 z"
   id="path43" />
		<path
   class="st5"
   d="M 71.86,106.11 C 57.34,104.8 45.36,94.66 41.37,81.09 c -0.01,0.31 -0.01,0.63 -0.01,0.95 0,8.69 2.93,16.7 7.85,23.1 4.02,1.45 8.36,2.25 12.88,2.25 3.38,-0.01 6.66,-0.45 9.77,-1.28 z"
   id="path44" />
		<path
   class="st6"
   d="m 45.33,52.47 c 6.22,-9.85 17.2,-16.4 29.71,-16.4 2.01,0 3.99,0.17 5.91,0.5 -5.56,-3.19 -12,-5.01 -18.86,-5.01 -0.9,0 -1.8,0.03 -2.69,0.1 -6.81,5.06 -11.86,12.36 -14.07,20.81 z"
   id="path45" />
	</g>
</g>
</svg>
